<svg xmlns="http://www.w3.org/2000/svg" viewBox="0 0 1200 474" width="1200" height="474" role="img" aria-label="Industries served: Banking &amp; FinTech, Healthcare &amp; HealthTech, Construction &amp; Real Estate, Artificial Intelligence &amp; SaaS, Telecommunications, E-commerce &amp; Retail, Payments &amp; Financial Services, Communication &amp; Contact Centers, Marketing &amp; Advertising, Enterprise &amp; Business Automation, Logistics &amp; Operations, Collectibles &amp; Trading Cards, Fashion &amp; Resale Marketplaces, Scheduling &amp; Appointment Platforms">
<defs>
<radialGradient id="bg" cx="50%" cy="0%" r="95%">
<stop offset="0%" stop-color="#17383d"/><stop offset="55%" stop-color="#0f2429"/><stop offset="100%" stop-color="#0b1417"/></radialGradient>
<radialGradient id="halo" cx="50%" cy="0%" r="50%">
<stop offset="0%" stop-color="#2FD18C" stop-opacity=".30"/><stop offset="100%" stop-color="#2FD18C" stop-opacity="0"/></radialGradient>
<linearGradient id="card" x1="0" y1="0" x2="0" y2="1">
<stop offset="0%" stop-color="#ffffff" stop-opacity=".055"/><stop offset="100%" stop-color="#ffffff" stop-opacity=".012"/></linearGradient>
<linearGradient id="edge" x1="0" y1="0" x2="1" y2="0">
<stop offset="0%" stop-color="#2FD18C" stop-opacity="0"/>
<stop offset="34%" stop-color="#8CF0C4" stop-opacity=".95"/>
<stop offset="62%" stop-color="#2FD18C" stop-opacity=".35"/>
<stop offset="100%" stop-color="#2FD18C" stop-opacity="0"/></linearGradient>
<linearGradient id="tile" x1="0" y1="0" x2="1" y2="1">
<stop offset="0%" stop-color="#2FD18C" stop-opacity=".20"/><stop offset="100%" stop-color="#21AB71" stop-opacity=".07"/></linearGradient>
<linearGradient id="rule" x1="0" y1="0" x2="1" y2="0">
<stop offset="0%" stop-color="#2FD18C" stop-opacity=".55"/><stop offset="100%" stop-color="#2FD18C" stop-opacity="0"/></linearGradient>
<pattern id="dots" width="11" height="11" patternUnits="userSpaceOnUse">
<circle cx="1.5" cy="1.5" r="1.05" fill="#2FD18C" opacity=".17"/></pattern>
<style>.m{font-family:'Fira Code',ui-monospace,Menlo,monospace}.s{font-family:'Segoe UI',Helvetica,Arial,sans-serif;font-weight:600}</style>
</defs>

<rect width="1200" height="474" fill="url(#bg)"/>
<ellipse cx="600" cy="-30" rx="504" ry="170" fill="url(#halo)"/>
<g fill="none" stroke="#2FD18C" opacity=".16">
<circle cx="1240" cy="-150" r="330" stroke-width="1.2"/>
<circle cx="1350" cy="-60" r="330" stroke-width=".8"/>
<circle cx="-140" cy="594" r="300" stroke-width="1"/>
</g>
<rect x="950" y="366" width="230" height="88" fill="url(#dots)"/>

<text class="m" x="34" y="40" fill="#2FD18C" font-size="13" letter-spacing="5">INDUSTRIES SERVED</text>
<text class="m" x="1166" y="40" fill="#93A3A4" font-size="12" text-anchor="end">14 sectors</text>
<rect x="288" y="35" width="0" height="1" fill="url(#rule)">
<animate attributeName="width" values="0;790" dur="1.1s" fill="freeze" calcMode="spline" keySplines=".2 .85 .2 1" keyTimes="0;1"/></rect><g opacity="0"><animate attributeName="opacity" values="0;1" dur=".55s" begin="0.18s" fill="freeze"/>
<rect x="30.0" y="78" width="179.2" height="112" rx="14" fill="url(#card)" stroke="#2FD18C" stroke-opacity=".20" stroke-width="1"/>
<rect x="46.0" y="78" width="147.2" height="1.6" rx=".8" fill="url(#edge)"/>
<rect x="44.0" y="92" width="40" height="40" rx="11" fill="url(#tile)" stroke="#2FD18C" stroke-opacity=".22" stroke-width="1"/>
<g transform="translate(52.0 100) scale(1)" fill="none" stroke="#7BEDBA" stroke-width="1.45" stroke-linecap="round" stroke-linejoin="round"><path d="M3.6 10.2 12 5l8.4 5.2"/><path d="M5.8 10.8v6.6M9.9 10.8v6.6M14.1 10.8v6.6M18.2 10.8v6.6"/><path d="M3.4 19.4h17.2"/></g>
<text class="s" x="45.0" y="156" fill="#F2F7F6" font-size="12.5">Banking &amp; FinTech</text></g><g opacity="0"><animate attributeName="opacity" values="0;1" dur=".55s" begin="0.23s" fill="freeze"/>
<rect x="222.2" y="78" width="179.2" height="112" rx="14" fill="url(#card)" stroke="#2FD18C" stroke-opacity=".20" stroke-width="1"/>
<rect x="238.2" y="78" width="147.2" height="1.6" rx=".8" fill="url(#edge)"/>
<rect x="236.2" y="92" width="40" height="40" rx="11" fill="url(#tile)" stroke="#2FD18C" stroke-opacity=".22" stroke-width="1"/>
<g transform="translate(244.2 100) scale(1)" fill="none" stroke="#7BEDBA" stroke-width="1.45" stroke-linecap="round" stroke-linejoin="round"><path d="M12 19.6S5.2 15.4 5.2 10.9A3.9 3.9 0 0 1 12 8.2a3.9 3.9 0 0 1 6.8 2.7c0 4.5-6.8 8.7-6.8 8.7z"/><path d="M6.6 12.4h2.6l1.2-2.1 1.8 3.6 1.3-1.5h2.4"/></g>
<text class="s" x="237.2" y="146" fill="#F2F7F6" font-size="12.5">Healthcare &amp;</text><text class="s" x="237.2" y="163" fill="#F2F7F6" font-size="12.5">HealthTech</text></g><g opacity="0"><animate attributeName="opacity" values="0;1" dur=".55s" begin="0.29s" fill="freeze"/>
<rect x="414.3" y="78" width="179.2" height="112" rx="14" fill="url(#card)" stroke="#2FD18C" stroke-opacity=".20" stroke-width="1"/>
<rect x="430.3" y="78" width="147.2" height="1.6" rx=".8" fill="url(#edge)"/>
<rect x="428.3" y="92" width="40" height="40" rx="11" fill="url(#tile)" stroke="#2FD18C" stroke-opacity=".22" stroke-width="1"/>
<g transform="translate(436.3 100) scale(1)" fill="none" stroke="#7BEDBA" stroke-width="1.45" stroke-linecap="round" stroke-linejoin="round"><path d="M4.2 19.8V9.4h6.4v10.4"/><path d="M10.6 19.8V4.6h9.2v15.2"/><path d="M13.3 8h1.4M16.6 8H18M13.3 11.4h1.4M16.6 11.4H18M13.3 14.8h1.4M16.6 14.8H18M6.6 12.4H8M6.6 15.8H8"/></g>
<text class="s" x="429.3" y="146" fill="#F2F7F6" font-size="12.5">Construction &amp;</text><text class="s" x="429.3" y="163" fill="#F2F7F6" font-size="12.5">Real Estate</text></g><g opacity="0"><animate attributeName="opacity" values="0;1" dur=".55s" begin="0.34s" fill="freeze"/>
<rect x="606.5" y="78" width="179.2" height="112" rx="14" fill="url(#card)" stroke="#2FD18C" stroke-opacity=".20" stroke-width="1"/>
<rect x="622.5" y="78" width="147.2" height="1.6" rx=".8" fill="url(#edge)"/>
<rect x="620.5" y="92" width="40" height="40" rx="11" fill="url(#tile)" stroke="#2FD18C" stroke-opacity=".22" stroke-width="1"/>
<g transform="translate(628.5 100) scale(1)" fill="none" stroke="#7BEDBA" stroke-width="1.45" stroke-linecap="round" stroke-linejoin="round"><rect x="6.6" y="6.6" width="10.8" height="10.8" rx="2.4"/><rect x="9.9" y="9.9" width="4.2" height="4.2" rx="1"/><path d="M9.4 3.6v3M14.6 3.6v3M9.4 17.4v3M14.6 17.4v3M3.6 9.4h3M3.6 14.6h3M17.4 9.4h3M17.4 14.6h3"/></g>
<text class="s" x="621.5" y="146" fill="#F2F7F6" font-size="12.5">Artificial</text><text class="s" x="621.5" y="163" fill="#F2F7F6" font-size="12.5">Intelligence &amp; SaaS</text></g><g opacity="0"><animate attributeName="opacity" values="0;1" dur=".55s" begin="0.40s" fill="freeze"/>
<rect x="798.7" y="78" width="179.2" height="112" rx="14" fill="url(#card)" stroke="#2FD18C" stroke-opacity=".20" stroke-width="1"/>
<rect x="814.7" y="78" width="147.2" height="1.6" rx=".8" fill="url(#edge)"/>
<rect x="812.7" y="92" width="40" height="40" rx="11" fill="url(#tile)" stroke="#2FD18C" stroke-opacity=".22" stroke-width="1"/>
<g transform="translate(820.7 100) scale(1)" fill="none" stroke="#7BEDBA" stroke-width="1.45" stroke-linecap="round" stroke-linejoin="round"><path d="M12 11.4v8.2"/><path d="M9 19.6 12 11.4l3 8.2"/><circle cx="12" cy="8.6" r="1.5"/><path d="M8.3 5.4a5.2 5.2 0 0 0 0 6.4M15.7 5.4a5.2 5.2 0 0 1 0 6.4"/><path d="M5.9 3.2a8.6 8.6 0 0 0 0 10.8M18.1 3.2a8.6 8.6 0 0 1 0 10.8"/></g>
<text class="s" x="813.7" y="156" fill="#F2F7F6" font-size="12.5">Telecommunications</text></g><g opacity="0"><animate attributeName="opacity" values="0;1" dur=".55s" begin="0.46s" fill="freeze"/>
<rect x="990.8" y="78" width="179.2" height="112" rx="14" fill="url(#card)" stroke="#2FD18C" stroke-opacity=".20" stroke-width="1"/>
<rect x="1006.8" y="78" width="147.2" height="1.6" rx=".8" fill="url(#edge)"/>
<rect x="1004.8" y="92" width="40" height="40" rx="11" fill="url(#tile)" stroke="#2FD18C" stroke-opacity=".22" stroke-width="1"/>
<g transform="translate(1012.8 100) scale(1)" fill="none" stroke="#7BEDBA" stroke-width="1.45" stroke-linecap="round" stroke-linejoin="round"><path d="M3.2 4.4h2.2l2.4 10.2h9.4l2-7.4H6.2"/><circle cx="9.4" cy="18.6" r="1.4"/><circle cx="16.8" cy="18.6" r="1.4"/></g>
<text class="s" x="1005.8" y="146" fill="#F2F7F6" font-size="12.5">E-commerce &amp;</text><text class="s" x="1005.8" y="163" fill="#F2F7F6" font-size="12.5">Retail</text></g><g opacity="0"><animate attributeName="opacity" values="0;1" dur=".55s" begin="0.51s" fill="freeze"/>
<rect x="30.0" y="203" width="179.2" height="112" rx="14" fill="url(#card)" stroke="#2FD18C" stroke-opacity=".20" stroke-width="1"/>
<rect x="46.0" y="203" width="147.2" height="1.6" rx=".8" fill="url(#edge)"/>
<rect x="44.0" y="217" width="40" height="40" rx="11" fill="url(#tile)" stroke="#2FD18C" stroke-opacity=".22" stroke-width="1"/>
<g transform="translate(52.0 225) scale(1)" fill="none" stroke="#7BEDBA" stroke-width="1.45" stroke-linecap="round" stroke-linejoin="round"><rect x="3.2" y="5.8" width="17.6" height="12.4" rx="2.4"/><path d="M3.2 10.2h17.6"/><path d="M6.4 14.6h4.2"/></g>
<text class="s" x="45.0" y="271" fill="#F2F7F6" font-size="12.5">Payments &amp;</text><text class="s" x="45.0" y="288" fill="#F2F7F6" font-size="12.5">Financial Services</text></g><g opacity="0"><animate attributeName="opacity" values="0;1" dur=".55s" begin="0.56s" fill="freeze"/>
<rect x="222.2" y="203" width="179.2" height="112" rx="14" fill="url(#card)" stroke="#2FD18C" stroke-opacity=".20" stroke-width="1"/>
<rect x="238.2" y="203" width="147.2" height="1.6" rx=".8" fill="url(#edge)"/>
<rect x="236.2" y="217" width="40" height="40" rx="11" fill="url(#tile)" stroke="#2FD18C" stroke-opacity=".22" stroke-width="1"/>
<g transform="translate(244.2 225) scale(1)" fill="none" stroke="#7BEDBA" stroke-width="1.45" stroke-linecap="round" stroke-linejoin="round"><path d="M4 6.6h10.4a2 2 0 0 1 2 2v4.2a2 2 0 0 1-2 2H8.8L5 17.6v-2.8a2 2 0 0 1-1-1.7V8.6a2 2 0 0 1 2-2z"/><path d="M18.6 9.4h.6a2 2 0 0 1 2 2v4.2a2 2 0 0 1-1 1.7v2.5l-3.2-2.4"/></g>
<text class="s" x="237.2" y="271" fill="#F2F7F6" font-size="12.5">Communication &amp;</text><text class="s" x="237.2" y="288" fill="#F2F7F6" font-size="12.5">Contact Centers</text></g><g opacity="0"><animate attributeName="opacity" values="0;1" dur=".55s" begin="0.62s" fill="freeze"/>
<rect x="414.3" y="203" width="179.2" height="112" rx="14" fill="url(#card)" stroke="#2FD18C" stroke-opacity=".20" stroke-width="1"/>
<rect x="430.3" y="203" width="147.2" height="1.6" rx=".8" fill="url(#edge)"/>
<rect x="428.3" y="217" width="40" height="40" rx="11" fill="url(#tile)" stroke="#2FD18C" stroke-opacity=".22" stroke-width="1"/>
<g transform="translate(436.3 225) scale(1)" fill="none" stroke="#7BEDBA" stroke-width="1.45" stroke-linecap="round" stroke-linejoin="round"><path d="M4.4 19.6h15.2"/><path d="M7.4 19.6v-4.8M12 19.6V8.4M16.6 19.6v-7.4"/><circle cx="12" cy="5.4" r="1.3"/></g>
<text class="s" x="429.3" y="271" fill="#F2F7F6" font-size="12.5">Marketing &amp;</text><text class="s" x="429.3" y="288" fill="#F2F7F6" font-size="12.5">Advertising</text></g><g opacity="0"><animate attributeName="opacity" values="0;1" dur=".55s" begin="0.68s" fill="freeze"/>
<rect x="606.5" y="203" width="179.2" height="112" rx="14" fill="url(#card)" stroke="#2FD18C" stroke-opacity=".20" stroke-width="1"/>
<rect x="622.5" y="203" width="147.2" height="1.6" rx=".8" fill="url(#edge)"/>
<rect x="620.5" y="217" width="40" height="40" rx="11" fill="url(#tile)" stroke="#2FD18C" stroke-opacity=".22" stroke-width="1"/>
<g transform="translate(628.5 225) scale(1)" fill="none" stroke="#7BEDBA" stroke-width="1.45" stroke-linecap="round" stroke-linejoin="round"><circle cx="12" cy="12" r="3.1"/><path d="M12 4.2v2.4M12 17.4v2.4M19.8 12h-2.4M6.6 12H4.2M17.5 6.5l-1.7 1.7M8.2 15.8l-1.7 1.7M17.5 17.5l-1.7-1.7M8.2 8.2 6.5 6.5"/><circle cx="12" cy="12" r="7.5" stroke-dasharray="2.6 2.4"/></g>
<text class="s" x="621.5" y="271" fill="#F2F7F6" font-size="12.5">Enterprise &amp;</text><text class="s" x="621.5" y="288" fill="#F2F7F6" font-size="12.5">Business Automation</text></g><g opacity="0"><animate attributeName="opacity" values="0;1" dur=".55s" begin="0.73s" fill="freeze"/>
<rect x="798.7" y="203" width="179.2" height="112" rx="14" fill="url(#card)" stroke="#2FD18C" stroke-opacity=".20" stroke-width="1"/>
<rect x="814.7" y="203" width="147.2" height="1.6" rx=".8" fill="url(#edge)"/>
<rect x="812.7" y="217" width="40" height="40" rx="11" fill="url(#tile)" stroke="#2FD18C" stroke-opacity=".22" stroke-width="1"/>
<g transform="translate(820.7 225) scale(1)" fill="none" stroke="#7BEDBA" stroke-width="1.45" stroke-linecap="round" stroke-linejoin="round"><path d="M12 3.4l8 4.4v8.4l-8 4.4-8-4.4V7.8z"/><path d="M12 12.2 20 7.8M12 12.2v8.4M12 12.2 4 7.8"/></g>
<text class="s" x="813.7" y="271" fill="#F2F7F6" font-size="12.5">Logistics &amp;</text><text class="s" x="813.7" y="288" fill="#F2F7F6" font-size="12.5">Operations</text></g><g opacity="0"><animate attributeName="opacity" values="0;1" dur=".55s" begin="0.78s" fill="freeze"/>
<rect x="990.8" y="203" width="179.2" height="112" rx="14" fill="url(#card)" stroke="#2FD18C" stroke-opacity=".20" stroke-width="1"/>
<rect x="1006.8" y="203" width="147.2" height="1.6" rx=".8" fill="url(#edge)"/>
<rect x="1004.8" y="217" width="40" height="40" rx="11" fill="url(#tile)" stroke="#2FD18C" stroke-opacity=".22" stroke-width="1"/>
<g transform="translate(1012.8 225) scale(1)" fill="none" stroke="#7BEDBA" stroke-width="1.45" stroke-linecap="round" stroke-linejoin="round"><rect x="8.8" y="8.8" width="11.4" height="11.4" rx="2.2"/><path d="M5.2 15.6V6a2.2 2.2 0 0 1 2.2-2.2h9.4"/></g>
<text class="s" x="1005.8" y="271" fill="#F2F7F6" font-size="12.5">Collectibles &amp;</text><text class="s" x="1005.8" y="288" fill="#F2F7F6" font-size="12.5">Trading Cards</text></g><g opacity="0"><animate attributeName="opacity" values="0;1" dur=".55s" begin="0.84s" fill="freeze"/>
<rect x="30.0" y="328" width="179.2" height="112" rx="14" fill="url(#card)" stroke="#2FD18C" stroke-opacity=".20" stroke-width="1"/>
<rect x="46.0" y="328" width="147.2" height="1.6" rx=".8" fill="url(#edge)"/>
<rect x="44.0" y="342" width="40" height="40" rx="11" fill="url(#tile)" stroke="#2FD18C" stroke-opacity=".22" stroke-width="1"/>
<g transform="translate(52.0 350) scale(1)" fill="none" stroke="#7BEDBA" stroke-width="1.45" stroke-linecap="round" stroke-linejoin="round"><path d="M12 11.4V10a2.3 2.3 0 1 1 2.3-2.3"/><path d="M12 11.4 4.2 16.8a1.1 1.1 0 0 0 .6 2h14.4a1.1 1.1 0 0 0 .6-2L12 11.4z"/></g>
<text class="s" x="45.0" y="396" fill="#F2F7F6" font-size="12.5">Fashion &amp; Resale</text><text class="s" x="45.0" y="413" fill="#F2F7F6" font-size="12.5">Marketplaces</text></g><g opacity="0"><animate attributeName="opacity" values="0;1" dur=".55s" begin="0.90s" fill="freeze"/>
<rect x="222.2" y="328" width="179.2" height="112" rx="14" fill="url(#card)" stroke="#2FD18C" stroke-opacity=".20" stroke-width="1"/>
<rect x="238.2" y="328" width="147.2" height="1.6" rx=".8" fill="url(#edge)"/>
<rect x="236.2" y="342" width="40" height="40" rx="11" fill="url(#tile)" stroke="#2FD18C" stroke-opacity=".22" stroke-width="1"/>
<g transform="translate(244.2 350) scale(1)" fill="none" stroke="#7BEDBA" stroke-width="1.45" stroke-linecap="round" stroke-linejoin="round"><rect x="3.4" y="5.6" width="17.2" height="14.6" rx="2.4"/><path d="M3.4 10h17.2"/><path d="M8.2 3.6v3.4M15.8 3.6v3.4"/><path d="M7.6 13.4h1.6M11.2 13.4h1.6M14.8 13.4h1.6M7.6 16.6h1.6M11.2 16.6h1.6"/></g>
<text class="s" x="237.2" y="396" fill="#F2F7F6" font-size="12.5">Scheduling &amp;</text><text class="s" x="237.2" y="413" fill="#F2F7F6" font-size="12.5">Appointment Platforms</text></g></svg>